Coordinates
version=1
nRows=29
nColumns=24
inDegrees=yes

Units are S.I. units (second, meters, Newtons, ...)
Angles are in degrees.

endheader
time	pelvis_tilt	pelvis_list	pelvis_rotation	pelvis_tx	pelvis_ty	pelvis_tz	hip_flexion_r	hip_adduction_r	hip_rotation_r	knee_angle_r	ankle_angle_r	subtalar_angle_r	mtp_angle_r	hip_flexion_l	hip_adduction_l	hip_rotation_l	knee_angle_l	ankle_angle_l	subtalar_angle_l	mtp_angle_l	lumbar_extension	lumbar_bending	lumbar_rotation
      8.02000000	      4.83660863	      8.01042806	    -12.59482993	     -0.80466423	      0.67265383	      0.17597777	      7.81450239	     -6.50083197	      5.73192600	    -68.05196175	    -18.81608996	    -26.45676038	      0.00000000	      7.07024496	     12.56365478	      7.88558207	    -12.92421332	      7.53800674	    -12.24696626	      0.00000000	    -10.99175145	    -16.21481425	      3.36567198
      8.03000000	      4.88203482	      7.68691850	    -12.14586747	     -0.79601404	      0.67401968	      0.17549812	      9.96433240	     -5.86795547	      5.55318336	    -69.73308210	    -17.35778739	    -28.34308108	      0.00000000	      5.78737364	     12.42122713	      8.46330077	    -12.37681572	      8.07785829	    -11.90820236	      0.00000000	    -11.45209469	    -15.75740265	      2.45051659
      8.04000000	      4.88113898	      7.28286510	    -11.61021162	     -0.78741812	      0.67537322	      0.17496066	     12.03969773	     -5.17623466	      5.31181246	    -70.90911770	    -15.90203888	    -29.68359976	      0.00000000	      4.54423516	     12.17526702	      9.16188998	    -11.85192960	      8.58026151	    -11.60605418	      0.00000000	    -11.84996401	    -15.17579706	      1.57933045
      8.05000000	      4.83612299	      6.81827171	    -10.99561993	     -0.77890699	      0.67664849	      0.17435932	     14.05073484	     -4.46134497	      5.01303993	    -71.61775755	    -14.51309177	    -30.41002131	      0.00000000	      3.35074062	     11.83867051	      9.95292691	    -11.34949712	      9.07664820	    -11.31676627	      0.00000000	    -12.19713405	    -14.50813560	      0.78390905
      8.06000000	      4.82881111	      6.37916062	    -10.33606350	     -0.77039225	      0.67784082	      0.17367604	     15.94642362	     -3.89556552	      4.61828829	    -71.92946666	    -12.47447057	    -29.73992802	      0.00000000	      2.09181659	     11.50008780	     10.68769357	    -10.75191376	      9.48213028	    -11.02926547	      0.00000000	    -12.54886875	    -13.85781294	      0.05589309
      8.07000000	      4.73226470	      5.93600873	     -9.64463028	     -0.76202534	      0.67880899	      0.17299579	     17.82848773	     -3.33938777	      4.24403565	    -71.80074083	    -10.95902163	    -29.09052812	      0.00000000	      0.98716328	     11.10374092	     11.35847880	    -10.23352552	      9.96099514	    -10.60770705	      0.00000000	    -12.82420328	    -13.21017415	     -0.55884109
      8.08000000	      4.63135471	      5.51271338	     -8.92787489	     -0.75373059	      0.67960273	      0.17231680	     19.59542291	     -2.87196447	      3.84252944	    -71.23569831	     -9.58099865	    -28.24636077	      0.00000000	     -0.07235636	     10.68835483	     11.90434720	     -9.74702227	     10.53416201	    -10.02512650	      0.00000000	    -13.10025870	    -12.60145160	     -1.07971331
      8.09000000	      4.52202749	      5.12804386	     -8.16517368	     -0.74551017	      0.68020850	      0.17162234	     21.23552940	     -2.51925666	      3.39738939	    -70.22899177	     -8.36651117	    -27.41105980	      0.00000000	     -1.06144382	     10.28130799	     12.37722582	     -9.33254058	     11.15061662	     -9.29187274	      0.00000000	    -13.39178844	    -12.04237053	     -1.57474486
      8.10000000	      4.40603720	      4.78201214	     -7.34964149	     -0.73734159	      0.68063395	      0.17091834	     22.72238796	     -2.27789814	      2.91211602	    -68.76456341	     -7.33427030	    -26.76861281	      0.00000000	     -1.98016020	      9.89175086	     12.84274789	     -9.00424617	     11.81210961	     -8.49206843	      0.00000000	    -13.69556421	    -11.53624240	     -2.07267818
      8.11000000	      4.19992491	      4.48330243	     -6.48283586	     -0.72921738	      0.68079457	      0.17020500	     24.13017864	     -2.13233966	      2.40981337	    -66.82986742	     -6.73614534	    -26.67334572	      0.00000000	     -2.75549163	      9.53449709	     13.48795250	     -8.74049930	     12.41841899	     -7.99597482	      0.00000000	    -13.90818070	    -11.07731165	     -2.56509151
      8.12000000	      4.04616225	      4.25368808	     -5.56443839	     -0.72108985	      0.68082530	      0.16946516	     25.29117628	     -2.14161082	      1.88300541	    -64.44100515	     -6.04978377	    -26.58897226	      0.00000000	     -3.51287598	      9.24957704	     14.18199568	     -8.59830700	     13.07431615	     -7.43928490	      0.00000000	    -14.18273123	    -10.69704136	     -3.11239387
      8.13000000	      3.89702185	      4.09146083	     -4.63803718	     -0.71294671	      0.68067646	      0.16873972	     26.25303563	     -2.26478006	      1.38684887	    -61.60684693	     -5.40212493	    -26.60731684	      0.00000000	     -4.21758199	      9.03177154	     14.90350377	     -8.55121609	     13.76870939	     -6.89925659	      0.00000000	    -14.45373021	    -10.39277814	     -3.67437153
      8.14000000	      3.72243557	      3.99052773	     -3.69291156	     -0.70476180	      0.68032972	      0.16803558	     27.02807627	     -2.49106468	      0.90320483	    -58.31591604	     -4.89558732	    -26.75543490	      0.00000000	     -4.85883013	      8.86966101	     15.68287265	     -8.57277417	     14.48582040	     -6.43493357	      0.00000000	    -14.68198723	    -10.16871222	     -4.23430502
      8.15000000	      3.51178538	      3.95279300	     -2.74503265	     -0.69649517	      0.67978000	      0.16732813	     27.60789799	     -2.80501529	      0.47233529	    -54.55597610	     -4.58742026	    -26.95954752	      0.00000000	     -5.44374644	      8.77064034	     16.54614173	     -8.64782162	     15.20310628	     -6.07378215	      0.00000000	    -14.83634126	    -10.00586408	     -4.80049654
      8.16000000	      3.43724334	      3.92253886	     -1.81330502	     -0.68808901	      0.67921215	      0.16666865	     27.75561713	     -3.13912397	      0.08053168	    -50.26120102	     -4.69162368	    -27.38310434	      0.00000000	     -6.21199079	      8.65767784	     17.41250988	     -8.67158379	     15.86951275	     -5.71031982	      0.00000000	    -15.11844447	     -9.86171180	     -5.33688419
      8.17000000	      3.11813423	      4.02388215	     -0.86955388	     -0.67955408	      0.67823033	      0.16597703	     27.94150463	     -3.62246491	     -0.27149708	    -45.55456628	     -4.81960748	    -27.40744828	      0.00000000	     -6.72352418	      8.66922944	     18.36745425	     -8.71822442	     16.55133263	     -5.52284357	      0.00000000	    -15.06211342	     -9.85767932	     -5.89999719
      8.18000000	      3.00386020	      4.13853601	      0.01814851	     -0.67076026	      0.67729378	      0.16536126	     27.58770411	     -4.09737547	     -0.56353945	    -40.30133007	     -5.43656750	    -27.53650661	      0.00000000	     -7.60009816	      8.64214254	     19.40437474	     -8.51889868	     17.05884167	     -5.40673739	      0.00000000	    -15.18097897	     -9.87593876	     -6.42333772
      8.19000000	      2.61952025	      4.40576556	      0.94563410	     -0.66178140	      0.67592333	      0.16470851	     27.30757636	     -4.76618307	     -0.95029384	    -34.71599191	     -5.91312428	    -26.95463814	      0.00000000	     -8.19457099	      8.74893526	     20.38606928	     -8.35616919	     17.63043187	     -5.19609038	      0.00000000	    -14.93580962	    -10.07525726	     -7.01377226
      8.20000000	      2.52292103	      4.71368749	      1.81201165	     -0.65247794	      0.67465785	      0.16413276	     26.45627387	     -5.45596511	     -1.45352444	    -28.74659546	     -6.59869814	    -26.03559301	      0.00000000	     -9.28106589	      8.81670298	     21.44738263	     -7.88658648	     18.02419218	     -5.08990810	      0.00000000	    -14.96435421	    -10.30949306	     -7.61614639
      8.21000000	      2.32698245	      5.13773293	      2.71190128	     -0.64290161	      0.67313861	      0.16355444	     25.57330604	     -6.29471978	     -2.37789124	    -22.65151298	     -7.01049652	    -24.28224429	      0.00000000	    -10.35384705	      8.94502289	     22.57179858	     -7.31129580	     18.33115103	     -5.02581390	      0.00000000	    -14.82921179	    -10.68115900	     -8.28148570
      8.22000000	      2.16667105	      5.61987617	      3.63365618	     -0.63303221	      0.67152169	      0.16301465	     24.58754402	     -7.18272589	     -3.97043160	    -16.61470387	     -6.83154853	    -21.39949584	      0.00000000	    -11.58214163	      9.04768345	     23.74850971	     -6.57790645	     18.54635114	     -4.95894199	      0.00000000	    -14.69172039	    -11.11929588	     -9.02730148
      8.23000000	      1.99477247	      6.11971276	      4.58642847	     -0.62289888	      0.66980616	      0.16255248	     23.63805041	     -8.02059887	     -6.48020379	    -10.87611738	     -5.84762149	    -17.13715332	      0.00000000	    -12.88051515	      9.08468464	     24.96063801	     -5.74580453	     18.64665525	     -4.91483853	      0.00000000	    -14.50124292	    -11.59734207	     -9.82682507
      8.24000000	      1.78970335	      6.56419201	      5.57524474	     -0.61257045	      0.66801206	      0.16222214	     22.81535826	     -8.64854012	     -9.78295795	     -5.66014458	     -4.10272509	    -11.66221264	      0.00000000	    -14.18497187	      8.97946594	     26.16195604	     -4.85957848	     18.68962093	     -4.83571359	      0.00000000	    -14.24878800	    -12.04350673	    -10.68173671
      8.25000000	      1.49486619	      6.91835468	      6.55952655	     -0.60214462	      0.66613227	      0.16208355	     22.22607124	     -8.98157552	    -13.32129161	     -1.07722072	     -1.97375987	     -5.61657859	      0.00000000	    -15.37317202	      8.73333654	     27.25100810	     -3.99720266	     18.66009867	     -4.75872502	      0.00000000	    -13.87444134	    -12.44287236	    -11.52706463
      8.26000000	      1.05983436	      7.25094242	      7.49161356	     -0.59171058	      0.66412821	      0.16212127	     21.89020967	     -9.12582064	    -16.13402820	      2.90279183	      0.07249997	     -0.13750322	      0.00000000	    -16.35554723	      8.47361229	     28.22843917	     -3.22798242	     18.56618530	     -4.76190956	      0.00000000	    -13.34716726	    -12.89376933	    -12.32827473
      8.27000000	      0.73484825	      7.41213194	      8.37376606	     -0.58115392	      0.66222359	      0.16226408	     21.39663637	     -9.00947628	    -17.65220141	      6.44340242	      1.64555627	      3.46211788	      0.00000000	    -17.39714843	      8.00470617	     29.04788989	     -2.51409484	     18.51790004	     -4.52885776	      0.00000000	    -12.90021651	    -13.15311973	    -13.03197140
      8.28000000	      0.31326046	      7.58397731	      9.19349636	     -0.57062582	      0.66028398	      0.16237393	     21.10275565	     -8.97576807	    -18.21125546	      9.22627311	      3.05297407	      5.59890845	      0.00000000	    -18.23069646	      7.62018838	     29.75461250	     -2.00326279	     18.47623648	     -4.31843962	      0.00000000	    -12.35870923	    -13.44856704	    -13.68510157
      8.29000000	     -0.03041800	      7.67789512	      9.91435898	     -0.56010634	      0.65850203	      0.16243694	     20.90785571	     -8.94810782	    -18.28076256	     11.07289925	      4.19771145	      6.34509051	      0.00000000	    -19.00685883	      7.23096091	     30.22567652	     -1.73389852	     18.52582872	     -4.02769752	      0.00000000	    -11.90191796	    -13.62089668	    -14.29279332
      8.30000000	     -0.26288282	      7.58676782	     10.53370433	     -0.54957372	      0.65697493	      0.16250453	     20.96049514	     -8.78443365	    -18.75809652	     11.69569352	      5.24227552	      6.64655203	      0.00000000	    -19.77550040	      6.69990325	     30.51836286	     -1.60752595	     18.47396359	     -3.68882443	      0.00000000	    -11.53772169	    -13.55794214	    -14.73974133
